<?xml version="1.0" encoding="UTF-8"?>
<!DOCTYPE svg PUBLIC "-//W3C//DTD SVG 1.1//EN" "http://www.w3.org/Graphics/SVG/1.1/DTD/svg11.dtd">
<!-- Creator: CorelDRAW -->
<svg xmlns="http://www.w3.org/2000/svg" xml:space="preserve" width="0.453567in" height="0.453567in" version="1.1" style="shape-rendering:geometricPrecision; text-rendering:geometricPrecision; image-rendering:optimizeQuality; fill-rule:evenodd; clip-rule:evenodd"
viewBox="0 0 9.62 9.62"
 xmlns:xlink="http://www.w3.org/1999/xlink"
 xmlns:xodm="http://www.corel.com/coreldraw/odm/2003">
 <defs>
  <style type="text/css">
   <![CDATA[
    .fil0 {fill:white}
   ]]>
  </style>
 </defs>
 <g id="Layer_x0020_1">
  <metadata id="CorelCorpID_0Corel-Layer"/>
  <path class="fil0" d="M2.1 5.42l2.94 0c-0.01,-0.06 -0.4,-0.7 -0.46,-0.8 -0.03,-0.06 -0.06,-0.11 -0.09,-0.16 -0.06,-0.11 -0.13,-0.21 -0.19,-0.32l-0.55 -0.96c-0.04,-0.06 -0.15,-0.28 -0.19,-0.31 -0.18,0.35 -0.44,0.75 -0.64,1.11 -0.03,0.06 -0.06,0.11 -0.09,0.16l-0.73 1.28zm5.31 2.23c0.02,-0.07 0.35,-0.62 0.42,-0.75 0.03,-0.05 0.06,-0.1 0.09,-0.15 0.1,-0.16 0.12,-0.25 0.12,-0.44 0,-0.15 -0.08,-0.27 -0.14,-0.37 -0.06,-0.11 -0.12,-0.22 -0.19,-0.33l-1.51 -2.64c-0.03,-0.05 -0.06,-0.1 -0.09,-0.16l-0.29 -0.5c-0.16,-0.28 -0.35,-0.37 -0.68,-0.37 -0.35,0 -0.69,0 -1.04,0 0.01,0.05 0.07,0.13 0.09,0.18 0.24,0.41 0.48,0.85 0.72,1.25 0.07,0.12 0.14,0.23 0.21,0.36 0.07,0.13 0.14,0.24 0.21,0.36l1.95 3.4c0.06,0.1 0.06,0.15 0.12,0.16zm-1.07 0.01l-0.75 -1.31 -4.03 0c0.04,0.08 0.57,1.02 0.63,1.07 0.03,0.03 0.07,0.07 0.1,0.1 0.26,0.21 0.63,0.14 1,0.14 1.01,0 2.03,0 3.04,0zm-1.54 -7.66c2.66,0 4.81,2.15 4.81,4.81 0,2.66 -2.15,4.81 -4.81,4.81 -2.66,0 -4.81,-2.15 -4.81,-4.81 0,-2.66 2.15,-4.81 4.81,-4.81z"/>
 </g>
</svg>
