<?xml version="1.0" encoding="UTF-8"?>
<!DOCTYPE svg PUBLIC "-//W3C//DTD SVG 1.1//EN" "http://www.w3.org/Graphics/SVG/1.1/DTD/svg11.dtd">
<!-- Creator: CorelDRAW -->
<svg xmlns="http://www.w3.org/2000/svg" xml:space="preserve" width="0.456528in" height="0.450417in" version="1.1" style="shape-rendering:geometricPrecision; text-rendering:geometricPrecision; image-rendering:optimizeQuality; fill-rule:evenodd; clip-rule:evenodd"
viewBox="0 0 14.27 14.08"
 xmlns:xlink="http://www.w3.org/1999/xlink"
 xmlns:xodm="http://www.corel.com/coreldraw/odm/2003">
 <defs>
  <style type="text/css">
   <![CDATA[
    .fil0 {fill:white;fill-rule:nonzero}
   ]]>
  </style>
 </defs>
 <g id="Layer_x0020_1">
  <metadata id="CorelCorpID_0Corel-Layer"/>
  <path class="fil0" d="M2.09 2.08c-1.39,1.37 -2.08,3.03 -2.09,4.97 0.01,1.93 0.7,3.59 2.09,4.96 1.4,1.38 3.08,2.07 5.05,2.07 1.98,0 3.66,-0.69 5.05,-2.07 1.39,-1.38 2.08,-3.03 2.08,-4.96 0,-1.94 -0.69,-3.6 -2.08,-4.97 -1.39,-1.39 -3.07,-2.08 -5.05,-2.08 -1.97,0 -3.65,0.69 -5.05,2.08zm0.92 2.36l2.71 0c0.87,0 1.4,0.38 1.59,1.13 0.02,0.13 0.03,0.23 0.03,0.31 0,0.5 -0.22,0.87 -0.65,1.12 0.54,0.22 0.82,0.65 0.82,1.29l0 0.03c0,0.73 -0.38,1.24 -1.13,1.54 -0.29,0.07 -0.73,0.11 -1.31,0.11l-2.05 0c-0.03,0 -0.04,-0.02 -0.04,-0.05l0 -5.43c0.01,-0.03 0.02,-0.04 0.04,-0.04zm5.56 0.31l2.34 0c0.03,0 0.05,0.01 0.05,0.04l0 0.49c0,0.03 -0.02,0.04 -0.05,0.04l-2.34 0c-0.03,0 -0.04,-0.01 -0.04,-0.04l0 -0.49c0.01,-0.03 0.02,-0.04 0.04,-0.04zm-4.48 0.66l0 1.19 1.07 0c0.58,0 0.92,-0.1 1,-0.32 0.03,-0.13 0.05,-0.22 0.05,-0.28l0 -0.01c0,-0.39 -0.27,-0.59 -0.82,-0.59l-1.31 0zm5.72 0.34c1.11,0 1.78,0.56 2,1.69 0.02,0.13 0.03,0.26 0.03,0.4l0 0.34c0,0.03 -0.01,0.04 -0.04,0.04l-2.93 0c0,0.5 0.25,0.82 0.75,0.96 0.1,0.02 0.19,0.03 0.26,0.03 0.37,0 0.65,-0.16 0.83,-0.47l1.03 0c0.03,0 0.04,0.02 0.04,0.06 0,0.26 -0.24,0.59 -0.71,0.97 -0.32,0.21 -0.74,0.32 -1.25,0.32 -0.71,0 -1.29,-0.29 -1.72,-0.86 -0.2,-0.33 -0.29,-0.7 -0.29,-1.11l0 -0.33c0,-0.88 0.39,-1.51 1.16,-1.87 0.27,-0.11 0.56,-0.17 0.85,-0.17zm-0.9 1.75l1.81 0c0,-0.37 -0.2,-0.64 -0.6,-0.8 -0.11,-0.03 -0.21,-0.04 -0.3,-0.04 -0.43,0 -0.72,0.21 -0.85,0.63 -0.03,0.1 -0.05,0.17 -0.05,0.22zm-4.82 0.03l0 1.44 1.44 0c0.53,0 0.79,-0.24 0.79,-0.73l0 -0.06c0,-0.43 -0.29,-0.65 -0.88,-0.65l-1.35 0z"/>
 </g>
</svg>
