<?xml version="1.0" encoding="UTF-8"?>
<!DOCTYPE svg PUBLIC "-//W3C//DTD SVG 1.1//EN" "http://www.w3.org/Graphics/SVG/1.1/DTD/svg11.dtd">
<!-- Creator: CorelDRAW -->
<svg xmlns="http://www.w3.org/2000/svg" xml:space="preserve" width="1.34199in" height="1.34199in" version="1.1" style="shape-rendering:geometricPrecision; text-rendering:geometricPrecision; image-rendering:optimizeQuality; fill-rule:evenodd; clip-rule:evenodd"
viewBox="0 0 108.15 108.15"
 xmlns:xlink="http://www.w3.org/1999/xlink"
 xmlns:xodm="http://www.corel.com/coreldraw/odm/2003">
 <defs>
  <style type="text/css">
   <![CDATA[
    .fil1 {fill:#4C39CA}
    .fil0 {fill:#4C39CA;fill-rule:nonzero}
   ]]>
  </style>
 </defs>
 <g id="Layer_x0020_1">
  <metadata id="CorelCorpID_0Corel-Layer"/>
  <g id="_1678562739712">
   <g>
    <path class="fil0" d="M62.74 54.26l22 21.63 -60 0 23.17 -20.79 5.53 4.6c0.4,0.37 0.93,0.56 1.51,0.56 0.62,0 1.14,-0.19 1.54,-0.56l6.24 -5.44z"/>
    <path class="fil0" d="M86.47 33.09l0.28 0 0 38.47 -20.73 -20.27 19.84 -17.3c0.28,-0.25 0.49,-0.56 0.62,-0.9z"/>
    <polygon class="fil0" points="27.46,32.26 80.6,32.26 54.89,54.72 "/>
    <path class="fil0" d="M44.29 52.28l-22.89 20.64 0.09 -39.83c0.09,0.4 0.34,0.74 0.71,0.99l22.09 18.2z"/>
   </g>
   <path class="fil1" d="M54.07 0c29.86,0 54.07,24.21 54.07,54.07 0,29.86 -24.21,54.07 -54.07,54.07 -29.86,0 -54.07,-24.21 -54.07,-54.07 0,-29.86 24.21,-54.07 54.07,-54.07zm0 7.87c25.52,0 46.21,20.69 46.21,46.21 0,25.52 -20.69,46.21 -46.21,46.21 -25.52,0 -46.21,-20.69 -46.21,-46.21 0,-25.52 20.69,-46.21 46.21,-46.21z"/>
  </g>
 </g>
</svg>
