<?xml version="1.0" encoding="UTF-8"?>
<svg id="Layer_2" data-name="Layer 2" xmlns="http://www.w3.org/2000/svg" viewBox="0 0 480 480">
  <defs>
    <style>
      .cls-1 {
        fill: #02dfef;
      }

      .cls-1, .cls-2, .cls-3 {
        stroke-width: 0px;
      }

      .cls-1, .cls-3 {
        fill-rule: evenodd;
      }

      .cls-2 {
        fill: none;
      }

      .cls-3 {
        fill: #fedd3a;
      }
    </style>
  </defs>
  <g id="Layer_1-2" data-name="Layer 1">
    <rect class="cls-2" width="480" height="480"/>
    <path class="cls-3" d="m340.62,229.76c-1.18,7.58-4.33,14.52-8.91,20.28-3.22,4.06-7.14,7.52-11.58,10.22-5.74,3.48-12.35,5.68-19.41,6.19-.02,0-.04.02-.04.04v54.42c0,5.59,2.26,10.65,5.93,14.31,3.7,3.7,8.82,5.97,14.48,5.92,11.2-.09,20.05-9.59,20.05-20.78v-96.27c-.05,1.93-.22,3.82-.52,5.68Z"/>
    <path class="cls-1" d="m335.21,144.79c-3.43-3.43-8.08-5.64-13.26-5.9-.34-.02-.69-.03-1.04-.03s-.69.01-1.04.03c-8.82.44-16.15,6.55-18.44,14.75,0,.02,0,.03.01.04,8.02,7.38,14.85,16.05,20.16,25.66.73,1.33,1.44,2.67,2.11,4.03-.93-1.37-1.89-2.71-2.89-4.03-14.59-19.39-35.99-33.39-60.59-38.41-6.54-1.35-13.3-2.05-20.23-2.05s-13.69.7-20.23,2.05c-14.93,3.04-28.68,9.4-40.45,18.27-7.62,5.73-14.41,12.52-20.14,20.14-1.04,1.37-2.04,2.77-3.01,4.2-.43.63-.85,1.27-1.27,1.92-.04.05-.07.1-.09.15-.43.67-.86,1.35-1.27,2.03-.4.66-.8,1.32-1.18,1.99-.05.06-.08.12-.11.19-.79,1.36-1.54,2.74-2.26,4.14-.08.14-.15.28-.21.43-.31.6-.61,1.2-.9,1.8-.04.07-.08.15-.11.23-.69,1.41-1.33,2.84-1.94,4.29-.32.76-.63,1.52-.93,2.28-.21.53-.41,1.05-.61,1.58-.16.38-.3.77-.43,1.15-.16.45-.32.9-.47,1.36-.11.28-.21.57-.3.85-.17.57-.35,1.13-.55,1.69-.09.25-.17.5-.23.76-.2.63-.39,1.26-.57,1.89-.22.73-.42,1.47-.6,2.21-.13.45-.24.9-.34,1.35-.12.46-.23.93-.34,1.39-.2.84-.39,1.69-.56,2.54,0,0,0,.02-.01.03-.16.78-.31,1.57-.45,2.36-.01.03-.01.07-.02.1-.4,2.25-.72,4.52-.96,6.81-.06.48-.11.95-.15,1.43-.14,1.44-.25,2.89-.32,4.34-.09,1.71-.13,3.43-.13,5.16,0,2.1.06,4.18.2,6.25.02.52.06,1.03.1,1.54.02.27.04.53.07.79.11,1.41.26,2.81.44,4.2,0,.04,0,.07.01.1.32,2.48.72,4.93,1.22,7.35,0,0,0,.02,0,.03.57,2.8,1.26,5.55,2.06,8.26,1.67,5.66,3.82,11.1,6.42,16.3,2.76,5.6,6.06,10.91,9.79,15.86.01.01.02.02.02.03,5.73,7.61,12.51,14.39,20.12,20.11,11.77,8.87,25.52,15.23,40.45,18.28,6.54,1.34,13.3,2.04,20.23,2.04,9.51-.01,17.54-6.66,19.67-15.55.37-1.51.56-3.08.56-4.7v-23.63s-.03-.05-.06-.04c-6.31,2.24-13.1,3.46-20.17,3.46s-13.9-1.23-20.23-3.48c-13.96-4.96-25.59-14.91-32.75-27.67-1.65-2.95-3.06-6.05-4.21-9.27h-.01c-2.25-6.33-3.48-13.14-3.48-20.23s1.23-13.9,3.48-20.23h-.01s.01-.02.01-.03c.05-.14.1-.28.16-.42.18-.52.37-1.03.58-1.53.54-1.38,1.13-2.73,1.78-4.06,6.91-14.34,19.31-25.58,34.45-30.96,5.78-2.05,11.95-3.26,18.38-3.45.61-.02,1.23-.03,1.85-.03s1.24.01,1.85.03c6.43.19,12.6,1.4,18.38,3.45,3.89,1.38,7.61,3.15,11.09,5.27.81.49,1.61,1,2.4,1.53,2.89,1.94,5.6,4.12,8.11,6.54.71.65,1.41,1.35,2.06,2.06,1.03,1.05,2,2.15,2.9,3.27.95,1.12,1.84,2.28,2.67,3.47,3.12,4.36,5.66,9.15,7.53,14.26l.21.57s.01.02.01.03h-37.02c-22.32,0-40.42,18.1-40.42,40.42h0s.02.04.04.04h80.87c13.09-.01,24.73-6.23,32.13-15.88,3.71-4.83,6.35-10.53,7.57-16.74.4-2.08.65-4.22.73-6.4.01.2.02.39.03.58v-62.73c0-5.58-2.26-10.64-5.93-14.3Z"/>
  </g>
</svg>