<?xml version="1.0" encoding="UTF-8"?>
<!DOCTYPE svg PUBLIC "-//W3C//DTD SVG 1.1//EN" "http://www.w3.org/Graphics/SVG/1.1/DTD/svg11.dtd">
<!-- Creator: CorelDRAW -->
<svg xmlns="http://www.w3.org/2000/svg" xml:space="preserve" width="0.96852in" height="0.968524in" version="1.1" style="shape-rendering:geometricPrecision; text-rendering:geometricPrecision; image-rendering:optimizeQuality; fill-rule:evenodd; clip-rule:evenodd"
viewBox="0 0 92.85 92.85"
 xmlns:xlink="http://www.w3.org/1999/xlink"
 xmlns:xodm="http://www.corel.com/coreldraw/odm/2003">
 <defs>
  <style type="text/css">
   <![CDATA[
    .fil0 {fill:white;fill-rule:nonzero}
   ]]>
  </style>
 </defs>
 <g id="Layer_x0020_1">
  <metadata id="CorelCorpID_0Corel-Layer"/>
  <path class="fil0" d="M83.2 0l0 0c-0.17,0 -0.33,0 -0.5,0.01 -4.14,0.21 -7.68,3.03 -8.79,7.04l-0.07 0.27 0.21 0.21c2.51,2.31 4.74,4.87 6.67,7.66 -6.62,-7.27 -15.35,-12.26 -25,-14.23 -3.02,-0.62 -6.15,-0.94 -9.29,-0.94 -3.14,0 -6.26,0.32 -9.29,0.94 -6.67,1.36 -13.09,4.26 -18.57,8.39 -3.5,2.63 -6.61,5.74 -9.24,9.24 -0.46,0.61 -0.93,1.25 -1.38,1.93 -0.19,0.28 -0.38,0.57 -0.57,0.87 -0.03,0.04 -0.05,0.07 -0.07,0.11 -0.23,0.36 -0.41,0.64 -0.57,0.91 -0.17,0.29 -0.35,0.58 -0.53,0.89 -0.03,0.05 -0.06,0.09 -0.08,0.13 -0.34,0.59 -0.69,1.23 -1.03,1.88 -0.04,0.06 -0.07,0.14 -0.1,0.21 -0.14,0.27 -0.27,0.53 -0.4,0.8 -0.02,0.04 -0.04,0.09 -0.06,0.13 -0.3,0.61 -0.59,1.25 -0.88,1.96 -0.15,0.35 -0.29,0.7 -0.43,1.05 -0.1,0.24 -0.19,0.48 -0.28,0.72 -0.08,0.18 -0.15,0.38 -0.2,0.54 -0.07,0.2 -0.14,0.4 -0.21,0.61 -0.06,0.15 -0.1,0.28 -0.14,0.41 -0.08,0.27 -0.16,0.52 -0.24,0.74 -0.05,0.14 -0.09,0.26 -0.12,0.38 -0.09,0.28 -0.18,0.57 -0.26,0.85 -0.1,0.32 -0.19,0.67 -0.28,1.02 -0.05,0.18 -0.1,0.38 -0.16,0.62 -0.04,0.16 -0.09,0.34 -0.13,0.52l-0.03 0.11c-0.09,0.37 -0.17,0.72 -0.23,1.05l-0 0 -0.03 0.13c-0.07,0.35 -0.14,0.71 -0.2,1.07 -0,0.01 -0,0.02 -0,0.02l-0 0 -0.01 0.03c-0.18,1.03 -0.33,2.08 -0.44,3.13 -0.03,0.22 -0.05,0.44 -0.07,0.66 -0.07,0.68 -0.12,1.35 -0.15,1.99 -0.04,0.75 -0.06,1.55 -0.06,2.37 0,1.02 0.03,1.96 0.09,2.87 0.01,0.23 0.03,0.47 0.05,0.71 0.01,0.13 0.02,0.25 0.03,0.38 0.05,0.59 0.11,1.23 0.2,1.89 0,0.03 0,0.06 0.01,0.09 0.15,1.15 0.33,2.26 0.55,3.31l0 0.14 0.04 0.04c0.25,1.22 0.56,2.45 0.92,3.67 0.76,2.57 1.75,5.09 2.95,7.48 1.22,2.48 2.71,4.9 4.41,7.17l0 0 0.09 0.12c2.63,3.5 5.74,6.6 9.24,9.23 5.48,4.13 11.9,7.03 18.57,8.39 3.03,0.62 6.16,0.94 9.29,0.94 4.48,-0 8.34,-3.05 9.38,-7.42 0.18,-0.72 0.27,-1.48 0.27,-2.24l0 -10.74c0,-0.26 -0.21,-0.47 -0.47,-0.47l-0.08 0 -0.08 0.03c-2.9,1.03 -5.93,1.55 -9.02,1.55 -3.1,0 -6.14,-0.52 -9.04,-1.56 -6.2,-2.2 -11.4,-6.6 -14.64,-12.37 -0.74,-1.32 -1.37,-2.71 -1.88,-4.14l-0.11 -0.3 -0 0c-0.96,-2.81 -1.45,-5.75 -1.45,-8.74 0,-3.1 0.52,-6.14 1.56,-9.04l0 -0.01 0.02 -0.04 0 -0.02 0.04 -0.12 0 -0 0 -0.01 0.08 -0.23c0.06,-0.16 0.11,-0.3 0.17,-0.44 0.25,-0.63 0.51,-1.24 0.8,-1.82 3.09,-6.42 8.71,-11.46 15.4,-13.84 2.65,-0.94 5.42,-1.46 8.22,-1.54 0.27,-0.01 0.55,-0.01 0.83,-0.01 0.28,0 0.55,0 0.83,0.01 2.8,0.08 5.57,0.6 8.22,1.54 1.73,0.61 3.4,1.41 4.96,2.36 0.36,0.22 0.72,0.45 1.07,0.68 1.3,0.87 2.51,1.85 3.62,2.92 0.32,0.3 0.63,0.6 0.92,0.92 0.45,0.46 0.89,0.95 1.3,1.46 0.42,0.5 0.82,1.02 1.2,1.55 1.34,1.87 2.42,3.9 3.24,6.04l-16.18 0c-10.38,0 -18.83,8.45 -18.83,18.83 0,0.26 0.21,0.47 0.47,0.47l36.76 0c5.91,-0 11.36,-2.7 14.97,-7.4 0.31,-0.4 0.6,-0.82 0.88,-1.25 -0.59,1.15 -1.29,2.25 -2.1,3.26 -1.44,1.81 -3.17,3.34 -5.14,4.54 -2.6,1.58 -5.58,2.53 -8.62,2.75 -0.25,0.02 -0.44,0.23 -0.44,0.47l0 24.74c0,2.58 1,5.01 2.83,6.83 1.82,1.82 4.24,2.82 6.82,2.82l0.08 -0c5.27,-0.04 9.57,-4.49 9.57,-9.9l0 -43.76 -0.1 -0c0.03,-0.34 0.06,-0.68 0.08,-1.03l0.02 -0 0 -28.51c0,-2.58 -1,-5 -2.83,-6.82 -1.69,-1.69 -3.94,-2.69 -6.33,-2.81 -0.16,-0.01 -0.33,-0.01 -0.5,-0.01z"/>
 </g>
</svg>
