<?xml version="1.0" encoding="UTF-8"?>
<!DOCTYPE svg PUBLIC "-//W3C//DTD SVG 1.1//EN" "http://www.w3.org/Graphics/SVG/1.1/DTD/svg11.dtd">
<!-- Creator: CorelDRAW -->
<svg xmlns="http://www.w3.org/2000/svg" xml:space="preserve" width="0.453543in" height="0.453543in" version="1.1" style="shape-rendering:geometricPrecision; text-rendering:geometricPrecision; image-rendering:optimizeQuality; fill-rule:evenodd; clip-rule:evenodd"
viewBox="0 0 8.91 8.91"
 xmlns:xlink="http://www.w3.org/1999/xlink"
 xmlns:xodm="http://www.corel.com/coreldraw/odm/2003">
 <defs>
  <style type="text/css">
   <![CDATA[
    .fil0 {fill:white;fill-rule:nonzero}
   ]]>
  </style>
 </defs>
 <g id="Layer_x0020_1">
  <metadata id="CorelCorpID_0Corel-Layer"/>
  <path class="fil0" d="M6.01 2.84c0,-0.26 -0.21,-0.47 -0.47,-0.47 -0.26,0 -0.47,0.21 -0.47,0.47 0,0.26 0.21,0.47 0.47,0.47 0.26,0 0.47,-0.21 0.47,-0.47zm0.02 0.78l-2.16 0 0 -0.14c0,-0.28 0.28,-0.28 0.42,-0.28 0.16,0 0.24,0.02 0.24,0.02l0 -0.76c-0.11,-0.01 -0.22,-0.02 -0.34,-0.02 -0,0 -0.01,0 -0.01,0 -0.45,0 -1.28,0.13 -1.28,1.08l-0 0.12 -0.39 0 0 0.71 0.39 0 0 1.49 -0.37 0 0 0.71 1.77 0 0 -0.71 -0.43 0 0 -1.49 1.18 0 0 1.49 -0.37 0 0 0.71 1.71 0 0 -0.71 -0.37 0 0 -2.21zm-1.58 -3.63c2.46,0 4.46,1.99 4.46,4.46 0,2.46 -1.99,4.46 -4.46,4.46 -2.46,0 -4.46,-1.99 -4.46,-4.46 0,-2.46 1.99,-4.46 4.46,-4.46z"/>
 </g>
</svg>
