<?xml version="1.0" encoding="UTF-8"?>
<!DOCTYPE svg PUBLIC "-//W3C//DTD SVG 1.1//EN" "http://www.w3.org/Graphics/SVG/1.1/DTD/svg11.dtd">
<!-- Creator: CorelDRAW -->
<svg xmlns="http://www.w3.org/2000/svg" xml:space="preserve" width="14.6444in" height="3.94743in" version="1.1" style="shape-rendering:geometricPrecision; text-rendering:geometricPrecision; image-rendering:optimizeQuality; fill-rule:evenodd; clip-rule:evenodd"
viewBox="0 0 14926.95 4023.6"
 xmlns:xlink="http://www.w3.org/1999/xlink"
 xmlns:xodm="http://www.corel.com/coreldraw/odm/2003">
 <defs>
  <style type="text/css">
   <![CDATA[
    .fil0 {fill:#1C2127}
   ]]>
  </style>
 </defs>
 <g id="Layer_x0020_1">
  <metadata id="CorelCorpID_0Corel-Layer"/>
  <path class="fil0" d="M801.83 4023.6l76.12 0c-3.91,-5.86 -7.84,-11.67 -11.74,-17.54 -1180.86,-1776.55 -781.37,-3360.36 -528.79,-4006.06l-67.91 0c-256.26,669.7 -635.65,2252.24 532.32,4023.6zm2199.96 0l64.24 0c-93.2,-574.09 -117.47,-1183.46 -53.54,-1776.45 89.37,-829.02 351.2,-1625.41 837.98,-2247.15l-80.14 0c-475.41,625.88 -732.34,1417.63 -821.05,2240.43 -64.14,594.96 -40.28,1206.44 52.51,1783.17zm4441.81 0l81.86 0c833.29,-1023.86 1656.5,-1856.17 2414.56,-2511.1 813.5,-702.82 1550.22,-1201.04 2142.58,-1512.5l-128.37 0c-581.4,316.18 -1285.79,799.26 -2055.76,1464.48 -770.44,665.62 -1607.89,1513.7 -2454.86,2559.12zm7483.36 -3270.24l0 -89.63c-65.13,-64.47 -130.13,-127.4 -194.77,-188.39 -187.69,-177.11 -372.5,-338.26 -548.77,-475.35l-104.16 0c193.49,145.7 399.37,323.46 609.38,521.63 79.04,74.58 158.62,152.04 238.32,231.73z"/>
 </g>
</svg>
