<?xml version="1.0" encoding="UTF-8"?>
<!DOCTYPE svg PUBLIC "-//W3C//DTD SVG 1.1//EN" "http://www.w3.org/Graphics/SVG/1.1/DTD/svg11.dtd">
<!-- Creator: CorelDRAW -->
<svg xmlns="http://www.w3.org/2000/svg" xml:space="preserve" width="1.23131in" height="1.80299in" version="1.1" style="shape-rendering:geometricPrecision; text-rendering:geometricPrecision; image-rendering:optimizeQuality; fill-rule:evenodd; clip-rule:evenodd"
viewBox="0 0 173.12 253.49"
 xmlns:xlink="http://www.w3.org/1999/xlink"
 xmlns:xodm="http://www.corel.com/coreldraw/odm/2003">
 <defs>
  <style type="text/css">
   <![CDATA[
    .fil0 {fill:#4C39CA}
   ]]>
  </style>
 </defs>
 <g id="Layer_x0020_1">
  <metadata id="CorelCorpID_0Corel-Layer"/>
  <g id="_1636640284864">
   <path class="fil0" d="M76.34 61.78l5.78 27.66c-2.98,3.72 -6.66,6.27 -10.2,7.2 -2.99,0.78 -6.65,0.6 -10.38,-0.55l-8.45 -26.77c4.27,1.64 8.55,2 11.97,1.11 3.98,-1.04 8.15,-4.14 11.28,-8.64zm6.62 31.71l32.59 156.04c0.32,1.52 -0.03,3.43 -1.75,3.88 -1.72,0.45 -2.96,-1.04 -3.42,-2.52l-47.61 -150.88c3.65,1.09 7.22,1.25 10.15,0.48 3.48,-0.91 7.09,-3.39 10.04,-7zm-2.85 -56.35c2.18,15.15 -7.39,27.17 -16.06,29.44 -11.33,2.96 -32.13,-7.85 -30.63,-33.31 0.81,-13.73 3.55,-25.4 6.03,-33.27 4.78,7.76 11.7,17.57 18.09,21.31 11.21,6.56 18.96,2.55 22.58,15.83z"/>
   <path class="fil0" d="M72.18 183.67c3.38,7.65 0.86,16.18 -5.64,19.05 -6.5,2.87 -14.5,-1 -17.89,-8.65 -3.38,-7.65 -0.86,-16.18 5.64,-19.05 6.5,-2.87 14.5,1 17.89,8.65zm35.01 3.47c7.23,3.25 11.06,10.72 8.6,17.09 -0.81,2.09 -2.2,3.81 -3.97,5.09l2.22 10.62c16.67,-1.45 32.1,-5.79 45.28,-12.3 6.6,-3.26 12.65,-7.39 13.59,-15.46 3.44,-29.53 -38,-30.81 -43.54,-40.58 -1.92,-3.4 -3.94,-11.56 7.86,-17.16 8.97,-4.26 21.49,-5.38 27.69,-11.19 13.68,-12.84 4.68,-31.42 -11.05,-38.18 -15.26,-6.55 -33.11,-10.32 -52.19,-10.32 -6.05,0 -11.97,0.38 -17.72,1.11l3.33 15.94c0.08,-0.27 0.17,-0.53 0.27,-0.79 2.56,-6.63 10.96,-9.55 18.76,-6.53 7.8,3.02 12.04,10.83 9.48,17.46 -2.56,6.63 -10.96,9.55 -18.76,6.53 -3.11,-1.2 -5.65,-3.17 -7.42,-5.51l17.58 84.19zm0.39 24.22c-2.99,0.85 -6.42,0.8 -9.77,-0.32l2.98 9.43c0.3,0 0.59,0.01 0.89,0.01 2.61,0 5.2,-0.07 7.77,-0.21l-1.86 -8.91zm-15.62 -3.62c-4.34,-3.73 -6.28,-9.29 -4.49,-14.22l-23.58 -74.74c-7.16,2.32 -14.66,-0.29 -17.32,-6.3 -2.87,-6.5 1,-14.5 8.65,-17.89 0.31,-0.14 0.61,-0.26 0.92,-0.38l-3.32 -10.52c-31.48,12.38 -52.82,36.36 -52.82,63.91 0,38.86 42.46,70.62 95.95,72.75l-3.98 -12.62zm-1.18 -18.96c2.92,-2.48 7.1,-3.63 11.44,-3.06l-19.26 -92.23c-2.59,3.17 -5.69,5.47 -8.77,6.6l0.07 0.15c2.55,5.76 -0.21,12.71 -6.2,16.56l22.72 71.99zm46.94 -11.68c7.65,-3.38 16.18,-0.86 19.05,5.64 2.87,6.5 -1,14.5 -8.65,17.89 -7.65,3.38 -16.18,0.86 -19.05,-5.64 -2.87,-6.5 1,-14.5 8.65,-17.89zm-6.56 -65.55c-3.38,-7.65 -0.86,-16.18 5.64,-19.05 6.5,-2.87 14.5,1 17.89,8.65 3.38,7.65 0.86,16.18 -5.64,19.05 -6.5,2.87 -14.5,-1 -17.89,-8.65zm-70.55 -18.39c4.29,-0.41 8.39,0.87 11.15,3.51l0.15 -0.04c3.54,-0.93 7.23,-3.48 10.2,-7.2l-2.7 -12.94c-7.81,1.25 -15.28,3.14 -22.29,5.6l3.49 11.07zm-17.77 59.08c-3.02,7.8 -10.83,12.04 -17.46,9.48 -6.63,-2.56 -9.55,-10.96 -6.53,-18.76 3.02,-7.8 10.83,-12.04 17.46,-9.48 6.63,2.56 9.55,10.96 6.53,18.76z"/>
  </g>
 </g>
</svg>
