<?xml version="1.0" encoding="UTF-8"?>
<!DOCTYPE svg PUBLIC "-//W3C//DTD SVG 1.1//EN" "http://www.w3.org/Graphics/SVG/1.1/DTD/svg11.dtd">
<!-- Creator: CorelDRAW -->
<svg xmlns="http://www.w3.org/2000/svg" xml:space="preserve" width="0.456528in" height="0.450417in" version="1.1" style="shape-rendering:geometricPrecision; text-rendering:geometricPrecision; image-rendering:optimizeQuality; fill-rule:evenodd; clip-rule:evenodd"
viewBox="0 0 10.58 10.44"
 xmlns:xlink="http://www.w3.org/1999/xlink"
 xmlns:xodm="http://www.corel.com/coreldraw/odm/2003">
 <defs>
  <style type="text/css">
   <![CDATA[
    .fil0 {fill:white;fill-rule:nonzero}
   ]]>
  </style>
 </defs>
 <g id="Layer_x0020_1">
  <metadata id="CorelCorpID_0Corel-Layer"/>
  <path class="fil0" d="M1.55 1.54c1.04,-1.03 2.29,-1.54 3.74,-1.54 1.46,0 2.71,0.51 3.74,1.54 1.03,1.02 1.55,2.25 1.55,3.69 0,1.43 -0.52,2.66 -1.55,3.68 -1.03,1.02 -2.28,1.54 -3.74,1.54 -1.46,0 -2.71,-0.51 -3.74,-1.54 -1.03,-1.02 -1.54,-2.25 -1.55,-3.68 0.01,-1.44 0.52,-2.67 1.55,-3.69zm2.88 0.31c-0.69,0 -1.15,0.06 -1.4,0.18 -0.24,0.07 -0.49,0.26 -0.74,0.56 -0.3,0.29 -0.44,0.9 -0.44,1.85l0 1.8c0,0.68 0.06,1.15 0.18,1.4 0.07,0.24 0.26,0.48 0.56,0.74 0.29,0.29 0.9,0.44 1.85,0.44l1.8 0c0.69,0 1.15,-0.06 1.4,-0.18 0.24,-0.08 0.49,-0.26 0.74,-0.56 0.3,-0.29 0.44,-0.91 0.44,-1.85l0 -1.8c0,-0.69 -0.06,-1.15 -0.18,-1.41 -0.08,-0.24 -0.26,-0.48 -0.56,-0.73 -0.29,-0.3 -0.9,-0.44 -1.85,-0.44l-1.8 0zm0.02 0.62c0,0.01 0,0.02 0.01,0.02 0.02,-0.01 0.04,-0.02 0.06,-0.02l1.61 0 0.08 0.02c0,-0.01 0.01,-0.02 0.02,-0.02 0.02,0.01 0.04,0.02 0.06,0.02l0.12 0c0.71,0 1.17,0.14 1.39,0.42 0.24,0.22 0.37,0.67 0.37,1.34l0 0.12 0.02 0.09c-0.01,0 -0.02,0 -0.02,0.01 0.01,0.02 0.02,0.04 0.02,0.06l0 1.61 -0.02 0.08c0.01,0 0.02,0.01 0.02,0.02 -0.01,0.02 -0.02,0.04 -0.02,0.06l0 0.12c0,0.71 -0.14,1.17 -0.42,1.39 -0.22,0.24 -0.67,0.37 -1.34,0.37l-0.12 0 -0.08 0.02c0,-0.01 -0,-0.02 -0.01,-0.02 -0.02,0.01 -0.04,0.02 -0.07,0.02l-1.61 0 -0.07 -0.02c0,0.01 -0.01,0.02 -0.02,0.02 -0.02,-0.01 -0.04,-0.02 -0.06,-0.02l-0.12 0c-0.71,0 -1.17,-0.14 -1.39,-0.42 -0.24,-0.22 -0.37,-0.67 -0.37,-1.34l0 -0.12 -0.02 -0.08c0.01,0 0.02,-0 0.02,-0.01 -0.01,-0.02 -0.02,-0.04 -0.02,-0.07l0 -1.61 0.02 -0.07c-0.01,0 -0.02,-0.01 -0.02,-0.02 0.01,-0.02 0.02,-0.04 0.02,-0.07l0 -0.12c0,-0.7 0.14,-1.17 0.42,-1.38 0.22,-0.25 0.67,-0.37 1.34,-0.37l0.12 0 0.08 -0.02zm2.69 0.58c-0.2,0 -0.32,0.13 -0.37,0.4 0.04,0.3 0.17,0.44 0.42,0.44 0.28,-0.05 0.42,-0.17 0.42,-0.37l0 -0.11c0,-0.19 -0.12,-0.31 -0.37,-0.37l-0.1 0zm-1.87 0.47c-0.3,0 -0.63,0.11 -0.98,0.34 -0.51,0.41 -0.76,0.89 -0.76,1.43 0.01,0 0.02,0 0.02,0.01l-0.02 0.03 0.02 0.04 -0.02 0.03c0,0.26 0.09,0.55 0.27,0.89 0.4,0.57 0.91,0.86 1.54,0.86 0.35,0 0.7,-0.11 1.04,-0.34 0.51,-0.41 0.76,-0.88 0.76,-1.42 -0.01,0 -0.02,-0 -0.02,-0.01l0.02 -0.04 -0.02 -0.03 0.02 -0.03c0,-0.3 -0.11,-0.63 -0.34,-0.98 -0.41,-0.51 -0.89,-0.76 -1.43,-0.76 0,0.01 -0,0.02 -0.01,0.02l-0.03 -0.02 -0.04 0.02 -0.03 -0.02zm-1.1 1.8c0,-0.04 0.02,-0.15 0.05,-0.32 0.23,-0.56 0.6,-0.84 1.12,-0.84 0.05,0 0.16,0.02 0.32,0.05 0.56,0.23 0.84,0.6 0.84,1.11 0,0.05 -0.02,0.16 -0.05,0.33 -0.23,0.56 -0.6,0.84 -1.11,0.84 -0.11,-0.01 -0.22,-0.03 -0.33,-0.05 -0.56,-0.23 -0.84,-0.6 -0.84,-1.12z"/>
 </g>
</svg>
