<?xml version="1.0" encoding="UTF-8"?>
<!DOCTYPE svg PUBLIC "-//W3C//DTD SVG 1.1//EN" "http://www.w3.org/Graphics/SVG/1.1/DTD/svg11.dtd">
<!-- Creator: CorelDRAW -->
<svg xmlns="http://www.w3.org/2000/svg" xml:space="preserve" width="1.35133in" height="1.63199in" version="1.1" style="shape-rendering:geometricPrecision; text-rendering:geometricPrecision; image-rendering:optimizeQuality; fill-rule:evenodd; clip-rule:evenodd"
viewBox="0 0 214.05 258.5"
 xmlns:xlink="http://www.w3.org/1999/xlink"
 xmlns:xodm="http://www.corel.com/coreldraw/odm/2003">
 <defs>
  <style type="text/css">
   <![CDATA[
    .fil1 {fill:#4C39CA}
    .fil0 {fill:#4C39CA;fill-rule:nonzero}
   ]]>
  </style>
 </defs>
 <g id="Layer_x0020_1">
  <metadata id="CorelCorpID_0Corel-Layer"/>
  <g id="_1676921602544">
   <g>
    <path class="fil0" d="M120.64 78.97c1.87,-4.88 7.34,-7.33 12.22,-5.46 4.88,1.87 7.33,7.34 5.46,12.22 -6.72,17.49 -16.73,33.3 -29.27,46.66 -12.58,13.4 -27.75,24.39 -44.73,32.19 -4.76,2.17 -10.38,0.08 -12.56,-4.68 -2.18,-4.76 -0.08,-10.38 4.68,-12.56 14.67,-6.74 27.83,-16.28 38.78,-27.95 10.92,-11.63 19.61,-25.33 25.41,-40.42z"/>
    <path class="fil0" d="M74.29 85.73c-1.87,-4.88 0.58,-10.36 5.46,-12.22 4.88,-1.87 10.36,0.58 12.22,5.46 5.79,15.09 14.49,28.79 25.41,40.42 10.96,11.67 24.11,21.22 38.78,27.95 4.76,2.17 6.86,7.8 4.68,12.56 -2.18,4.76 -7.8,6.86 -12.56,4.68 -16.97,-7.79 -32.14,-18.78 -44.73,-32.19 -12.54,-13.36 -22.56,-29.17 -29.27,-46.66z"/>
    <path class="fil0" d="M49.31 88.03c-5.25,0 -9.51,-4.26 -9.51,-9.51 0,-5.25 4.26,-9.51 9.51,-9.51l115.43 0c5.25,0 9.51,4.26 9.51,9.51 0,5.25 -4.26,9.51 -9.51,9.51l-115.43 0z"/>
    <path class="fil0" d="M97.51 58.12c0,-5.25 4.26,-9.51 9.51,-9.51 5.25,0 9.51,4.26 9.51,9.51l0 10.89 -19.02 0 0 -10.89z"/>
   </g>
   <path class="fil1" d="M102.68 208.56c-15.6,-0.66 -30.29,-4.83 -43.3,-11.75l46.49 61.69 -3.19 -49.95z"/>
   <path class="fil0" d="M107.02 0c-29.55,0 -56.31,11.98 -75.68,31.35 -19.37,19.37 -31.35,46.13 -31.35,75.68 0,29.55 11.98,56.31 31.35,75.68 19.37,19.37 46.13,31.35 75.68,31.35 29.55,0 56.31,-11.98 75.68,-31.35 19.37,-19.37 31.35,-46.13 31.35,-75.68 0,-29.55 -11.98,-56.31 -31.35,-75.68 -19.37,-19.37 -46.13,-31.35 -75.68,-31.35zm-63.68 43.34c16.29,-16.29 38.81,-26.37 63.68,-26.37 24.87,0 47.39,10.08 63.68,26.37 16.29,16.29 26.37,38.81 26.37,63.68 0,24.87 -10.08,47.39 -26.37,63.68 -16.29,16.29 -38.81,26.37 -63.68,26.37 -24.87,0 -47.39,-10.08 -63.68,-26.37 -16.29,-16.29 -26.37,-38.81 -26.37,-63.68 0,-24.87 10.08,-47.39 26.37,-63.68z"/>
  </g>
 </g>
</svg>
