<?xml version="1.0" encoding="UTF-8"?>
<!DOCTYPE svg PUBLIC "-//W3C//DTD SVG 1.1//EN" "http://www.w3.org/Graphics/SVG/1.1/DTD/svg11.dtd">
<!-- Creator: CorelDRAW -->
<svg xmlns="http://www.w3.org/2000/svg" xml:space="preserve" width="0.456528in" height="0.450835in" version="1.1" style="shape-rendering:geometricPrecision; text-rendering:geometricPrecision; image-rendering:optimizeQuality; fill-rule:evenodd; clip-rule:evenodd"
viewBox="0 0 12.79 12.63"
 xmlns:xlink="http://www.w3.org/1999/xlink"
 xmlns:xodm="http://www.corel.com/coreldraw/odm/2003">
 <defs>
  <style type="text/css">
   <![CDATA[
    .fil0 {fill:white;fill-rule:nonzero}
   ]]>
  </style>
 </defs>
 <g id="Layer_x0020_1">
  <metadata id="CorelCorpID_0Corel-Layer"/>
  <path class="fil0" d="M1.87 1.86c1.24,-1.24 2.75,-1.86 4.52,-1.86 1.76,0 3.27,0.62 4.52,1.86 1.24,1.23 1.87,2.72 1.87,4.45 0,1.74 -0.62,3.22 -1.87,4.46 -1.26,1.24 -2.76,1.86 -4.52,1.86 -1.77,0 -3.28,-0.62 -4.52,-1.86 -1.25,-1.23 -1.87,-2.72 -1.87,-4.46 0,-1.74 0.62,-3.22 1.87,-4.45zm2.72 2.6l-0.12 0.01c-0.23,0 -0.71,-0 -1.46,-0.02 -0.01,0 -0.01,0.01 -0.01,0.03l0 5.03 1.56 0c0.02,-0.64 0.02,-1.47 0.02,-2.52l0 -2.53zm-0.91 -2.51c-0.53,0.07 -0.8,0.37 -0.8,0.89l0 0.02c0.01,0.61 0.28,0.91 0.83,0.91 0.06,0 0.12,-0 0.19,-0.01 0.49,-0.05 0.75,-0.32 0.81,-0.79l0 -0.12c0,-0.27 -0.1,-0.5 -0.28,-0.68 -0.17,-0.16 -0.37,-0.24 -0.61,-0.24 -0.05,0 -0.1,0 -0.15,0.01zm6.34 2.89c-0.3,-0.35 -0.75,-0.53 -1.34,-0.53l-0.18 0c-0.58,0.03 -1.05,0.31 -1.42,0.82l0 -0.69c-0.72,0.02 -1.19,0.02 -1.41,0.02l-0.1 -0.01 0 5.03 0.11 -0.01c0.23,0 0.72,0.01 1.46,0.02 0.02,-0.17 0.02,-0.39 0.02,-0.68 0,-0.2 -0,-0.43 -0.01,-0.68 -0.01,-0.33 -0.01,-0.61 -0.01,-0.84 0,-0.24 0,-0.42 0.01,-0.56 0.02,-0.25 0.06,-0.46 0.14,-0.61 0.17,-0.32 0.4,-0.48 0.68,-0.48 0.14,0 0.31,0.04 0.49,0.12 0.29,0.13 0.43,0.81 0.43,2.05l0 1.66c0.27,0.01 0.53,0.01 0.8,0.01 0.27,0 0.53,-0 0.8,-0.01 0,0.03 0,0.05 0.01,0.05 0.01,0 0.01,-0.45 0.01,-1.35l0 -1.28c-0.01,-0.99 -0.17,-1.68 -0.49,-2.06z"/>
 </g>
</svg>
