<?xml version="1.0" encoding="UTF-8"?>
<!DOCTYPE svg PUBLIC "-//W3C//DTD SVG 1.1//EN" "http://www.w3.org/Graphics/SVG/1.1/DTD/svg11.dtd">
<!-- Creator: CorelDRAW -->
<svg xmlns="http://www.w3.org/2000/svg" xml:space="preserve" width="1.34199in" height="1.34199in" version="1.1" style="shape-rendering:geometricPrecision; text-rendering:geometricPrecision; image-rendering:optimizeQuality; fill-rule:evenodd; clip-rule:evenodd"
viewBox="0 0 108.15 108.15"
 xmlns:xlink="http://www.w3.org/1999/xlink"
 xmlns:xodm="http://www.corel.com/coreldraw/odm/2003">
 <defs>
  <style type="text/css">
   <![CDATA[
    .fil0 {fill:#4C39CA}
   ]]>
  </style>
 </defs>
 <g id="Layer_x0020_1">
  <metadata id="CorelCorpID_0Corel-Layer"/>
  <g id="_1680732494336">
   <path class="fil0" d="M54.07 0c29.86,0 54.07,24.21 54.07,54.07 0,29.86 -24.21,54.07 -54.07,54.07 -29.86,0 -54.07,-24.21 -54.07,-54.07 0,-29.86 24.21,-54.07 54.07,-54.07zm0 7.87c25.52,0 46.21,20.69 46.21,46.21 0,25.52 -20.69,46.21 -46.21,46.21 -25.52,0 -46.21,-20.69 -46.21,-46.21 0,-25.52 20.69,-46.21 46.21,-46.21z"/>
   <g>
    <path class="fil0" d="M54.07 61.95c-7.27,0 -14,2.26 -19.54,6.11 -5.05,3.51 -9.1,8.33 -11.68,13.96 3.64,4.06 8.06,7.42 13.02,9.81 5.49,2.65 11.66,4.14 18.2,4.14 6.54,0 12.71,-1.49 18.2,-4.14 4.96,-2.4 9.38,-5.75 13.02,-9.81 -2.57,-5.63 -6.63,-10.45 -11.68,-13.96 -5.54,-3.85 -12.27,-6.11 -19.54,-6.11z"/>
    <path class="fil0" d="M54.07 21.65c6.41,0 11.61,5.2 11.61,11.61 0,6.41 -5.2,20.82 -11.61,20.82 -6.41,0 -11.61,-14.41 -11.61,-20.82 0,-6.41 5.2,-11.61 11.61,-11.61z"/>
   </g>
  </g>
 </g>
</svg>
