<?xml version="1.0" encoding="UTF-8"?>
<!DOCTYPE svg PUBLIC "-//W3C//DTD SVG 1.1//EN" "http://www.w3.org/Graphics/SVG/1.1/DTD/svg11.dtd">
<!-- Creator: CorelDRAW -->
<svg xmlns="http://www.w3.org/2000/svg" xml:space="preserve" width="0.45528in" height="0.449169in" version="1.1" style="shape-rendering:geometricPrecision; text-rendering:geometricPrecision; image-rendering:optimizeQuality; fill-rule:evenodd; clip-rule:evenodd"
viewBox="0 0 11.52 11.36"
 xmlns:xlink="http://www.w3.org/1999/xlink"
 xmlns:xodm="http://www.corel.com/coreldraw/odm/2003">
 <defs>
  <style type="text/css">
   <![CDATA[
    .fil0 {fill:white;fill-rule:nonzero}
   ]]>
  </style>
 </defs>
 <g id="Layer_x0020_1">
  <metadata id="CorelCorpID_0Corel-Layer"/>
  <path class="fil0" d="M1.69 1.67c1.12,-1.11 2.48,-1.67 4.08,-1.67 1.59,0 2.95,0.56 4.08,1.67 1.12,1.11 1.68,2.45 1.68,4.02 0,1.56 -0.56,2.9 -1.68,4.01 -1.12,1.11 -2.48,1.67 -4.08,1.67 -1.59,0 -2.95,-0.56 -4.08,-1.67 -1.12,-1.11 -1.69,-2.45 -1.69,-4.01 0,-1.57 0.56,-2.91 1.69,-4.02zm5.56 4.04c-0.24,0.14 -0.58,0.32 -1.02,0.54 -0.5,0.25 -0.83,0.43 -1.02,0.53l0.01 -0.05c0,-0.26 -0.01,-0.96 -0.03,-2.09 0.23,0.11 0.57,0.29 1.03,0.53 0.45,0.24 0.79,0.41 1.03,0.53zm2.54 0.14c0,-1.18 -0.09,-1.92 -0.28,-2.21 -0.17,-0.27 -0.87,-0.44 -2.12,-0.5 -0.48,-0.02 -0.92,-0.03 -1.3,-0.03 -0.22,0 -0.43,0 -0.62,0.01 -0.12,0.01 -0.33,0.01 -0.62,0.01 -0.29,0 -0.51,0 -0.66,0.01 -0.69,0.04 -1.09,0.06 -1.17,0.08 -0.58,0.14 -0.86,1 -0.86,2.58 0,1.21 0.11,1.95 0.34,2.22 0.19,0.24 0.73,0.38 1.62,0.41 0.74,0.03 1.41,0.04 2.02,0.04 0.51,0 0.97,-0.01 1.38,-0.03 0.91,-0.04 1.44,-0.09 1.57,-0.13 0.47,-0.19 0.71,-1.01 0.71,-2.47z"/>
 </g>
</svg>
