<?xml version="1.0" encoding="UTF-8"?>
<svg id="Layer_2" data-name="Layer 2" xmlns="http://www.w3.org/2000/svg" xmlns:xlink="http://www.w3.org/1999/xlink" viewBox="0 0 384 288">
  <defs>
    <style>
      .cls-1 {
        fill: #693322;
      }

      .cls-2, .cls-3, .cls-4, .cls-5, .cls-6, .cls-7, .cls-8 {
        fill-rule: evenodd;
      }

      .cls-2, .cls-9 {
        fill: #c84145;
      }

      .cls-3, .cls-10 {
        fill: #1f1c18;
      }

      .cls-4, .cls-11 {
        fill: #36914e;
      }

      .cls-12, .cls-13 {
        fill: none;
      }

      .cls-5 {
        fill: #d7993b;
      }

      .cls-6, .cls-14 {
        fill: #2d7ad6;
      }

      .cls-7 {
        fill: #151310;
      }

      .cls-8 {
        fill: #834832;
      }

      .cls-15 {
        clip-path: url(#clippath);
      }

      .cls-13 {
        stroke: rgba(255, 0, 0, 0);
        stroke-miterlimit: 10.65;
        stroke-width: .49px;
      }
    </style>
    <clipPath id="clippath">
      <rect class="cls-12" width="384" height="288"/>
    </clipPath>
  </defs>
  <g id="Layer_1-2" data-name="Layer 1">
    <g class="cls-15">
      <g id="Boahemaa-body">
        <g id="torso">
          <path class="cls-8" d="M191.97,232.39c7.13,0,12.88,5.75,12.88,12.88,15.49,4.85,20.66,7.83,20.66,7.83,2.08.94,3.87,2.49,5.05,4.61,3.1,5.34,1.26,12.19-4.08,15.28-1.75,1.02-3.71,1.51-5.58,1.51,0,0-.65,10.68-2.24,22.91-.53,4.12-1.63,8.97-1.83,13.98-.16,3.63.37,7.91,1.1,11.37.08.37.16.77.24,1.14.16.86.29,1.71.37,2.61.08.82.12,1.63.12,2.45,0,14.71-11.94,26.66-26.66,26.66s-26.66-11.94-26.66-26.66c0-.82.04-1.67.12-2.45.08-.9.2-1.75.37-2.61.08-.37.16-.73.24-1.14.69-3.46,1.26-7.74,1.1-11.37-.2-5.01-1.3-9.86-1.83-13.98-1.59-12.23-2.24-22.91-2.24-22.91-1.92,0-3.83-.49-5.58-1.51-5.34-3.1-7.17-9.9-4.08-15.28,1.22-2.12,3.02-3.67,5.05-4.61,0,0,5.18-2.98,20.66-7.83,0-7.13,5.75-12.88,12.88-12.88h-.08Z"/>
          <g id="shirt">
            <g>
              <path class="cls-3" d="M173.67,247.02c3.46,6.6,10.35,11.13,18.34,11.13s14.88-4.52,18.34-11.13c11.25,3.79,15.2,6.07,15.2,6.07,2.08.94,3.87,2.49,5.05,4.61,3.1,5.34,1.26,12.19-4.08,15.28-1.75,1.02-3.71,1.51-5.58,1.51,0,0-.65,10.68-2.24,22.91-.53,4.12-1.63,8.97-1.83,13.98-.16,3.63.37,7.91,1.1,11.37.08.37.16.77.24,1.14.16.86.29,1.71.37,2.61,0,0-7.74,2.45-26.53,2.45s-26.53-2.45-26.53-2.45c.08-.9.2-1.75.37-2.61.08-.37.16-.73.24-1.14.69-3.46,1.26-7.74,1.1-11.37-.2-5.01-1.3-9.86-1.83-13.98-1.59-12.23-2.24-22.91-2.24-22.91-1.92,0-3.83-.49-5.58-1.51-5.34-3.1-7.17-9.9-4.08-15.28,1.22-2.12,3.02-3.67,5.05-4.61,0,0,3.95-2.28,15.2-6.07h-.08Z"/>
              <path id="_1" data-name=" 1" class="cls-10" d="M191.97,257.86v.57h-.73l-.73-.04-.73-.08-.73-.08-.73-.12-.73-.12-.69-.16-.69-.2-.69-.2-.69-.24-.65-.24-.65-.29-.65-.29-.65-.33-.61-.33-.61-.37-.61-.37-.57-.41-.57-.41-.53-.45-.53-.45-.53-.49-.49-.49-.49-.49-.49-.53-.45-.53-.45-.57-.41-.57-.41-.57-.37-.61-.37-.61-.33-.61.49-.24.33.61.37.61.37.57.37.57.41.57.41.53.45.53.45.49.49.49.49.49.49.45.53.45.53.41.53.41.57.41.57.37.57.37.61.33.61.33.61.29.65.29.65.24.65.24.65.2.69.16.69.16.69.12.69.12.69.08.73.08.73.04h.73l.08-.08ZM210.4,246.78l-.16.53.33-.12-.33.61-.37.61-.37.61-.41.57-.41.57-.45.57-.45.53-.49.53-.49.49-.49.49-.53.49-.53.45-.53.45-.57.41-.57.41-.61.37-.61.37-.61.33-.65.33-.65.29-.65.29-.65.24-.69.24-.69.2-.69.2-.69.16-.73.12-.73.12-.73.08-.73.08-.73.04h-.73v-.57h.73l.73-.04.73-.08.69-.08.69-.12.69-.12.69-.16.69-.16.65-.2.65-.24.65-.24.65-.29.61-.29.61-.33.61-.33.57-.37.57-.37.57-.41.53-.41.53-.41.53-.45.49-.45.49-.49.49-.49.45-.49.45-.53.41-.53.41-.57.37-.57.37-.57.37-.61.33-.61.33-.12.08.04ZM210.07,246.9l.12-.2.24.08-.33.12h-.04ZM225.64,252.85l-.24.53-.16-.37.12.33h-.04l-.04-.04-.08-.04-.12-.04-.12-.08-.16-.08-.2-.08-.2-.12-.24-.12-.29-.12-.29-.16-.33-.16-.37-.16-.41-.16-.45-.2-.45-.2-.49-.2-.53-.2-.57-.24-.61-.24-.65-.24-.69-.24-.69-.29-.73-.29-.77-.29-.82-.29-.86-.33-.9-.33-.94-.33-.98-.33-1.02-.37.16-.53,1.02.37.98.33.94.33.9.33.86.33.82.29.77.29.73.29.73.29.69.29.65.24.61.24.57.24.53.2.49.2.45.2.45.2.41.16.37.16.33.16.33.16.29.12.24.12.2.12.2.08.16.08.12.08.12.04.08.04.08.04.04.04.12.33-.16-.37h.04ZM225.4,253.38l-.24-.12.08-.24s.16.37.16.37ZM230.82,257.58l-.49.29h0l-.12-.2-.12-.2-.12-.2-.12-.16-.12-.16-.12-.16-.12-.16-.12-.16-.12-.16-.12-.16-.16-.16-.16-.16-.16-.16-.16-.16-.16-.16-.16-.12-.16-.12-.16-.12-.16-.12-.16-.12-.16-.12-.16-.12-.16-.12-.16-.12-.16-.12-.16-.12-.16-.12-.16-.08-.16-.08-.2-.08-.2-.08-.2-.08.24-.53.2.08.2.08.2.08.2.12.2.12.2.12.2.12.2.12.16.12.16.12.16.12.16.12.16.12.16.12.16.16.16.16.16.16.16.16.16.16.16.16.16.16.16.16.16.16.16.16.12.16.12.16.12.2.12.2.12.2.12.2.12.2.12.2h0l-.04-.08ZM226.62,273.23l-.29-.49h0l.49-.29.45-.33.45-.33.41-.37.41-.37.37-.37.37-.41.33-.41.33-.45.29-.45.24-.45.24-.45.2-.49.2-.49.16-.49.16-.49.12-.49.08-.53.08-.53.04-.53.04-.53v-.53l-.04-.53-.04-.53-.08-.53-.12-.53-.12-.53-.16-.53-.2-.53-.2-.49-.24-.49-.29-.49.49-.29.29.53.24.53.2.53.2.53.16.53.12.53.12.57.08.57.04.57.04.57v.57l-.04.57-.04.53-.08.53-.12.53-.12.53-.16.53-.16.53-.2.53-.24.49-.24.49-.29.49-.29.45-.33.45-.37.45-.37.41-.41.41-.41.41-.45.37-.45.37-.49.33-.49.33h0l.08-.04ZM220.59,274.49h.57l-.29-.29h1.14l.16-.04.16-.04.16-.04.16-.04.16-.04.16-.04.16-.04.16-.04.16-.04.16-.04.16-.04.16-.04.16-.04.16-.04.16-.08.16-.08.16-.08.16-.08.16-.08.16-.08.16-.08.16-.08.16-.08.16-.08.16-.08.29.49-.16.08-.16.08-.16.08-.16.08-.16.08-.16.08-.16.08-.16.08-.16.08-.16.08-.16.08-.16.08-.16.04-.16.04-.16.04-.16.04-.16.04-.16.04-.16.04-.16.04-.16.04-.16.04-.16.04-.16.04-.16.04h-1.14l-.29-.29-.29.04ZM220.87,274.78h-.29v-.29l.29.29ZM218.91,297.44l-.57-.08h0l.16-1.14.12-1.14.12-1.1.12-1.1.12-1.1.12-1.06.12-1.06.12-1.02.12-1.02.08-.98.08-.98.08-.94.08-.9.08-.86.08-.86.08-.82.08-.77.04-.73.04-.69.04-.65.04-.61.04-.57.04-.53.04-.49.04-.41.04-.37.04-.33v-.24l.04-.37.57-.12h-.57l.57.12-.04.37v.29l-.04.33-.04.37-.04.41-.04.49-.04.53-.04.57-.04.61-.04.65-.04.69-.08.73-.08.77-.08.82-.08.86-.08.86-.08.9-.08.94-.08.98-.08.98-.12,1.02-.12,1.02-.12,1.06-.12,1.06-.12,1.1-.12,1.1-.12,1.1-.12,1.14-.16,1.14h0l.04.04ZM217.08,311.38l-.57-.04h0l.04-.49.04-.49.04-.49.04-.45.04-.45.04-.45.04-.45.04-.45.04-.45.04-.45.04-.45.08-.45.08-.45.08-.45.08-.45.08-.45.08-.45.08-.45.08-.45.08-.45.08-.45.08-.41.08-.41.08-.41.08-.41.08-.41.08-.41.08-.41.04-.41.04-.41.04-.41.04-.37.57.08-.04.41-.04.41-.04.41-.04.41-.08.41-.08.41-.08.41-.08.41-.08.41-.08.41-.08.41-.08.45-.08.45-.08.45-.08.45-.08.45-.08.45-.08.45-.08.45-.08.45-.08.45-.04.45-.04.45-.04.45-.04.45-.04.45-.04.45-.04.45-.04.45-.04.45-.04.45-.04.45h0v.04ZM218.18,322.71l-.57.12h0l-.08-.33-.08-.33-.08-.33-.08-.33-.08-.33-.04-.37-.04-.37-.04-.37-.04-.37-.04-.37-.04-.37-.04-.37-.04-.37-.04-.37-.04-.37-.04-.37-.04-.37-.04-.37-.04-.37-.04-.37-.04-.37-.04-.37v-3.63l.57.04v3.55l.04.37.04.37.04.37.04.37.04.37.04.37.04.37.04.37.04.37.04.37.04.37.04.37.04.37.04.37.04.37.04.37.04.33.04.33.08.33.08.33.08.33.08.33h0l.04-.04ZM218.43,323.85l-.57.12h0v-1.3l.57-.12v1.3h0ZM218.59,326.78l-.16-.53-.2.29v-2.61l.57-.12v2.61l-.2.29v.08ZM218.79,326.5l.04.24-.2.08.2-.29-.04-.04ZM191.97,329.27v-.57h1.71l1.67-.04,1.59-.04,1.55-.04,1.47-.04,1.43-.08,1.34-.08,1.3-.08,1.22-.08,1.18-.08,1.1-.08,1.06-.12.98-.12.94-.12.9-.12.82-.12.77-.12.73-.12.65-.12.61-.12.57-.12.49-.08.45-.08.41-.08.37-.08.29-.08.24-.08.2-.04.16-.04.12-.04h.08l.16.53h-.04l-.08.04-.12.04-.16.04-.2.04-.24.08-.33.08-.37.08-.41.08-.45.08-.53.12-.57.12-.61.12-.65.12-.73.12-.77.12-.82.12-.9.12-.94.12-1.02.12-1.06.12-1.1.12-1.18.08-1.22.08-1.3.08-1.34.08-1.43.08-1.47.04-1.55.04-1.59.04-1.67.04h-1.71v-.08ZM165.16,326.5l.57.04-.2-.29h.08l.12.04.16.04.2.04.24.08.29.08.37.08.41.08.45.08.49.08.57.12.61.12.65.12.73.12.77.12.82.12.9.12.94.12.98.12,1.06.12,1.1.08,1.18.08,1.22.08,1.3.08,1.34.08,1.43.08,1.47.04,1.55.04,1.59.04,1.67.04h1.71v.57h-1.71l-1.67-.04-1.59-.04-1.55-.04-1.47-.04-1.43-.08-1.34-.08-1.3-.08-1.22-.08-1.18-.08-1.1-.12-1.06-.12-1.02-.12-.94-.12-.9-.12-.82-.12-.77-.12-.73-.12-.65-.12-.61-.12-.57-.12-.53-.12-.45-.08-.41-.08-.37-.08-.33-.08-.24-.08-.2-.04-.16-.04-.12-.04-.08-.04h-.04l-.2-.29v.08ZM165.36,326.78l-.2-.08.04-.24.2.29-.04.04ZM165.52,323.85l.57.12h0v2.61l-.57-.04v-2.61h0v-.08ZM165.77,322.71l.57.12h0v1.3l-.57-.12v-1.3h0ZM166.87,311.38l.57-.04h0v3.63l-.04.37-.04.37-.04.37-.04.37-.04.37-.04.37-.04.37-.04.37-.04.37-.04.37-.04.37-.04.37-.04.37-.04.37-.04.37-.04.37-.04.37-.08.33-.08.33-.08.33-.08.33-.08.33-.57-.12.08-.33.08-.33.08-.33.08-.33.04-.33.04-.33.04-.37.04-.37.04-.37.04-.37.04-.37.04-.37.04-.37.04-.37.04-.37.04-.37.04-.37.04-.37.04-.37.04-.37.04-.37.04-.37v-3.55h0l.04.04ZM165.03,297.44l.57-.08h0l.04.37.04.41.04.41.04.41.08.41.08.41.08.41.08.41.08.41.08.41.08.41.08.45.08.45.08.45.08.45.08.45.08.45.08.45.08.45.08.45.08.45.04.45.04.45.04.45.04.45.04.45.04.45.04.45.04.45.04.49.04.49.04.49-.57.04-.04-.45-.04-.45-.04-.45-.04-.45-.04-.45-.04-.45-.04-.45-.04-.45-.04-.45-.04-.45-.04-.45-.08-.45-.08-.45-.08-.45-.08-.45-.08-.45-.08-.45-.08-.45-.08-.45-.08-.45-.08-.41-.08-.41-.08-.41-.08-.41-.08-.41-.08-.41-.08-.41-.08-.41-.04-.41-.04-.41-.04-.41-.04-.41h0v-.08ZM163.08,274.78v-.57l-.29.29.57.12.04.37v.24l.04.33.04.37.04.41.04.49.04.53.04.57.04.61.04.65.04.69.04.73.08.77.08.82.08.86.08.86.08.9.08.94.08.98.08.98.12,1.02.12,1.02.12,1.06.12,1.06.12,1.1.12,1.1.12,1.1.12,1.14.16,1.14-.57.08-.16-1.14-.12-1.14-.12-1.1-.12-1.1-.12-1.1-.12-1.06-.12-1.06-.12-1.02-.12-1.02-.08-.98-.08-.98-.08-.94-.08-.9-.08-.86-.08-.86-.08-.82-.08-.77-.08-.73-.04-.69-.04-.65-.04-.61-.04-.57-.04-.53-.04-.49-.04-.41-.04-.37-.04-.33v-.29l-.04-.37.57-.12-.29.29.04-.04ZM163.36,274.49v.29h-.29l.29-.29ZM157.33,273.23l.29-.49h0l.16.08.16.08.16.08.16.08.16.08.16.08.16.08.16.08.16.08.16.08.16.08.16.04.16.04.16.04.16.04.16.04.16.04.16.04.16.04.16.04.16.04.16.04.16.04.16.04.16.04h1.14v.57h-1.14l-.16-.04-.16-.04-.16-.04-.16-.04-.16-.04-.16-.04-.16-.04-.16-.04-.16-.04-.16-.04-.16-.04-.16-.04-.16-.04-.16-.08-.16-.08-.16-.08-.16-.08-.16-.08-.16-.08-.16-.08-.16-.08-.16-.08-.16-.08-.16-.08-.16-.08h0l-.29-.04ZM153.13,257.58l.49.29h0l-.29.49-.24.49-.2.49-.2.53-.16.53-.12.53-.12.53-.08.53-.04.53-.04.53v.53l.04.53.04.53.08.53.08.53.12.49.16.49.16.49.2.49.2.49.24.45.24.45.29.45.33.45.33.41.37.41.37.37.41.37.41.37.45.33.45.33.49.29-.29.49-.49-.33-.49-.33-.45-.37-.45-.37-.41-.41-.41-.41-.37-.41-.37-.45-.33-.45-.29-.45-.29-.49-.24-.49-.24-.49-.2-.53-.16-.53-.16-.53-.12-.53-.12-.53-.08-.53-.04-.53-.04-.57v-.57l.04-.57.04-.57.08-.57.12-.57.12-.53.16-.53.2-.53.2-.53.24-.53.29-.53h0l.08.04ZM158.19,253.26l.49-.24-.12.37-.2.08-.2.08-.2.08-.16.08-.16.08-.16.12-.16.12-.16.12-.16.12-.16.12-.16.12-.16.12-.16.12-.16.12-.16.12-.16.12-.16.12-.16.16-.16.16-.16.16-.16.16-.16.16-.12.16-.12.16-.12.16-.12.16-.12.16-.12.16-.12.16-.12.2-.12.2-.12.2-.49-.29.12-.2.12-.2.12-.2.12-.2.12-.2.12-.2.12-.16.12-.16.16-.16.16-.16.16-.16.16-.16.16-.16.16-.16.16-.16.16-.16.16-.16.16-.16.16-.12.16-.12.16-.12.16-.12.16-.12.16-.12.2-.12.2-.12.2-.12.2-.12.2-.12.2-.08.2-.08.2-.08-.12.37-.04.12ZM158.68,253.01l.12.24-.29.12.12-.37h.04ZM173.88,246.94l-.49.24.33.12-1.02.37-.98.33-.94.33-.9.33-.86.33-.82.29-.77.29-.73.29-.69.29-.69.24-.65.24-.61.24-.57.24-.53.2-.49.2-.45.2-.45.2-.41.16-.37.16-.33.16-.29.16-.29.12-.24.12-.2.12-.2.08-.16.08-.12.08-.12.04-.08.04-.04.04h-.04l.08-.37-.49.24.12-.37.04-.04.08-.04.08-.04.12-.04.12-.08.16-.08.2-.08.2-.12.24-.12.29-.12.33-.16.33-.16.37-.16.41-.16.45-.2.45-.2.49-.2.53-.2.57-.24.61-.24.65-.24.69-.29.73-.29.73-.29.77-.29.82-.29.86-.33.9-.33.94-.33.98-.33,1.02-.37.33.12v.08ZM173.55,246.82l.24-.08.12.2-.33-.12h-.04Z"/>
            </g>
            <g>
              <path class="cls-5" d="M210.32,247.02c1.79.61,3.42,1.18,4.85,1.71-2.98,6.32-8.48,11.21-15.16,13.41-.16.04-.29.08-.45.12-5.42,1.83-7.66,5.54-7.66,5.54,0,0-2.28-3.75-7.66-5.54-.16-.04-.29-.08-.45-.12-6.68-2.24-12.19-7.13-15.16-13.41,1.43-.53,3.06-1.1,4.85-1.71,3.42,6.72,10.39,11.33,18.42,11.33s15.04-4.61,18.42-11.33Z"/>
              <path class="cls-2" d="M185.29,262.59l1.59-4.85c-.94-.24-1.83-.53-2.73-.9l-1.59,4.85c.41.16.77.29,1.18.45.16.04.29.08.45.12.37.12.73.2,1.06.33h.04Z"/>
              <path class="cls-4" d="M177.91,259.33l3.02-4.12c-.82-.49-1.59-1.06-2.32-1.67l-3.02,4.12c.73.61,1.51,1.14,2.32,1.67Z"/>
              <path class="cls-6" d="M171.92,253.95l4.12-3.02c-.61-.73-1.18-1.51-1.67-2.32l-4.12,3.02c.53.82,1.06,1.55,1.67,2.32Z"/>
              <path class="cls-2" d="M198.45,262.59l-1.59-4.85c.94-.24,1.83-.53,2.73-.9l1.59,4.85c-.41.16-.77.29-1.18.45-.16.04-.29.08-.45.12-.37.12-.73.2-1.06.33h-.04Z"/>
              <path class="cls-4" d="M205.83,259.33l-3.02-4.12c.82-.49,1.59-1.06,2.32-1.67l3.02,4.12c-.73.61-1.51,1.14-2.32,1.67Z"/>
              <path class="cls-6" d="M211.86,253.95l-4.12-3.02c.61-.73,1.18-1.51,1.67-2.32l4.12,3.02c-.53.82-1.06,1.55-1.67,2.32Z"/>
              <path class="cls-6" d="M193.32,258.31v7.83c-.98.98-1.43,1.71-1.43,1.71,0,0-.45-.73-1.43-1.71v-7.83c.49.04.94.04,1.43.04s.94,0,1.43-.04Z"/>
            </g>
          </g>
          <path id="neck_joint_circle" data-name="neck joint circle" class="cls-13" d="M191.97,232.39c7.13,0,12.88,5.75,12.88,12.88s-5.75,12.88-12.88,12.88-12.88-5.75-12.88-12.88,5.75-12.88,12.88-12.88ZM191.97,232.39v25.76M204.85,245.27h-25.76"/>
        </g>
        <g id="upper-arm_left" data-name="upper-arm left">
          <path class="cls-8" d="M163.08,274.45s-1.43,29.96-6.93,47.28c-.04.29-.12.61-.2.9-1.1,4.16-5.38,6.6-9.54,5.5-3.46-.94-5.79-4.08-5.79-7.54,0-.65.08-1.34.29-2,.04-.12.08-.29.12-.41,1.18-7.54,4.89-30.89,6.48-42.47,1.92-13.94,5.87-18.06,5.87-18.06,3.1-5.34,9.9-7.17,15.28-4.08,5.34,3.1,7.17,9.9,4.08,15.28-2.08,3.59-5.83,5.58-9.66,5.58Z"/>
          <path class="cls-1" d="M140.78,320.63c0,.08-.08.16-.16.16s-.16-.08-.16-.16h.33ZM140.74,318.59l.29.08h0v2.57h-.29v-2.61h0v-.04ZM140.74,318.59c.04-.08.12-.12.2-.12.08.04.12.12.12.2l-.29-.08h-.04ZM140.86,318.22l.29.04v.69l-.29-.08v-.65.04-.04ZM140.86,318.18c.04-.08.12-.12.2-.08s.12.12.08.2l-.29-.08v-.04ZM147.35,275.71l.29.04h0l-.16,1.1-.16,1.18-.16,1.22-.2,1.3-.2,1.34-.2,1.39-.2,1.43-.2,1.47-.2,1.51-.24,1.51-.24,1.55-.24,1.55-.24,1.55-.24,1.55-.24,1.55-.24,1.55-.24,1.55-.24,1.51-.24,1.51-.24,1.47-.24,1.43-.2,1.39-.2,1.34-.2,1.3-.2,1.26-.2,1.22-.16,1.14-.16,1.06-.16,1.02-.16.94-.12.86-.12.73-.29-.04.12-.73.12-.86.16-.94.16-1.02.16-1.06.16-1.14.2-1.22.2-1.26.2-1.3.2-1.34.2-1.39.24-1.43.24-1.47.24-1.51.24-1.51.24-1.55.24-1.55.24-1.55.24-1.55.24-1.55.24-1.55.24-1.55.24-1.51.2-1.51.2-1.47.2-1.43.2-1.39.2-1.34.2-1.3.16-1.22.16-1.18.16-1.1h0ZM147.35,275.71c0-.08.08-.12.16-.12s.12.08.12.16l-.29-.04ZM147.55,274.41l.29.04v1.3l-.29-.04v-1.3ZM147.55,274.41c0-.08.08-.12.16-.12s.12.08.12.16l-.29-.04ZM162.91,274.41c0-.08.08-.16.16-.16s.16.08.16.16h-.33ZM156.31,321.73l-.29-.04v-.04l.49-1.67.49-1.71.45-1.79.45-1.83.41-1.87.41-1.92.37-1.96.37-1.96.33-1.96.33-1.96.29-1.96.29-1.96.24-1.96.24-1.92.2-1.87.2-1.83.2-1.79.16-1.71.16-1.67.12-1.59.12-1.51.12-1.43.08-1.3.08-1.22.08-1.1.08-.98.04-.86.04-.69.04-.57.04-.41v-.33h.29v.33l-.04.41-.04.57-.04.69-.04.86-.08.98-.08,1.1-.08,1.22-.08,1.3-.12,1.43-.12,1.51-.12,1.59-.16,1.67-.16,1.71-.2,1.79-.2,1.83-.2,1.87-.24,1.92-.24,1.96-.29,1.96-.29,1.96-.33,2-.33,1.96-.37,1.96-.37,1.96-.41,1.92-.41,1.87-.45,1.83-.45,1.79-.49,1.71-.49,1.67v-.04.08ZM156.31,321.77c-.04.08-.12.12-.2.08s-.12-.12-.08-.2l.29.08v.04ZM156.15,322.67l-.29-.08v-.65l.29.04v.69ZM156.15,322.67c-.04.08-.12.12-.2.12-.08-.04-.12-.12-.12-.2l.29.08h.04Z"/>
          <g id="sleeve_left" data-name="sleeve left">
            <g>
              <path class="cls-3" d="M168.66,253.58c5.34,3.1,7.17,9.9,4.08,15.28-1.79,3.14-4.89,5.05-8.19,5.5-.73,2.24-1.55,5.42-2.16,9.86-.08.86-.16,1.79-.24,2.73-.2,2-.41,4.16-.65,6.44-5.38-.45-10.76-1.02-15.9-4.36.37-2.4.69-4.69,1.02-6.85.37-2.4.65-4.56.94-6.48,1.92-13.94,5.87-18.06,5.87-18.06,3.1-5.34,9.9-7.17,15.28-4.08h-.04Z"/>
              <path id="_1_21" data-name=" 1 21" class="cls-10" d="M172.98,269.03l-.49-.29h0l.29-.49.24-.49.2-.49.2-.53.16-.53.12-.53.12-.53.08-.53.04-.53.04-.53v-.53l-.04-.53-.04-.53-.08-.53-.08-.53-.12-.49-.16-.49-.16-.49-.2-.49-.2-.49-.24-.45-.24-.45-.29-.45-.33-.45-.33-.41-.37-.41-.37-.37-.41-.37-.41-.37-.45-.33-.45-.33-.49-.29.29-.49.49.33.49.33.45.37.45.37.41.41.41.41.37.41.37.45.33.45.29.45.29.49.24.49.24.49.2.53.16.53.16.53.12.53.12.53.08.53.04.53.04.57v.57l-.04.57-.04.57-.08.57-.12.57-.12.53-.16.53-.2.53-.2.53-.24.53-.29.53h0l-.08-.04ZM164.79,274.45l-.53-.16.24-.2.29-.04.29-.04.29-.08.29-.08.29-.08.29-.08.29-.08.29-.12.29-.12.29-.12.29-.12.29-.12.29-.12.29-.16.24-.16.24-.16.24-.16.24-.16.24-.2.24-.2.24-.2.24-.2.24-.2.2-.24.2-.24.2-.24.2-.24.2-.24.2-.24.16-.29.16-.29.16-.29.49.29-.16.29-.2.29-.2.29-.2.29-.2.29-.2.24-.2.24-.24.24-.24.24-.24.24-.24.2-.24.2-.24.2-.24.2-.24.2-.29.16-.29.16-.29.16-.29.16-.29.16-.29.12-.29.12-.29.12-.29.12-.29.12-.33.08-.33.08-.33.08-.33.08-.33.08-.33.04-.33.04.24-.2.12.08ZM164.26,274.29l.04-.16.16-.04-.24.2h.04ZM162.67,284.27l-.57-.04h0l.04-.41.04-.41.08-.41.08-.41.08-.37.08-.37.08-.37.08-.37.08-.37.08-.37.08-.33.08-.33.08-.33.08-.33.08-.33.08-.33.08-.29.08-.29.08-.29.08-.29.08-.29.08-.29.08-.29.08-.24.08-.24.08-.24.08-.24.08-.24.08-.24.08-.24.08-.2.08-.2.53.16-.08.2-.08.2-.08.2-.08.24-.08.24-.08.24-.08.24-.08.24-.08.24-.08.24-.08.29-.08.29-.08.29-.08.29-.08.29-.08.29-.08.33-.08.33-.08.33-.08.33-.08.33-.08.33-.08.37-.08.37-.08.37-.08.37-.08.37-.08.37-.08.41-.04.41-.04.41-.04.41h0v-.04ZM162.43,287.04l-.57-.04h0v-2.61l.57.04v2.61h0ZM161.45,293.73l.04-.57-.29.24.04-.2.04-.2.04-.2.04-.2.04-.2.04-.2.04-.2.04-.2.04-.41.04-.41.04-.41.04-.41.04-.41.04-.41.04-.41.04-.41.04-.41.04-.37.04-.37.04-.37.57.04-.04.37-.04.37-.04.37-.04.41-.04.41-.04.41-.04.41-.04.41-.04.41-.04.41-.04.41-.04.41-.04.2-.04.2-.04.2-.04.2-.04.2-.04.2-.04.2-.04.2-.29.24-.04.04ZM161.73,293.48l-.04.29-.29-.04.29-.24h.04ZM145.27,289.04l.57.08-.12-.29.49.29.49.29.49.29.49.24.49.24.49.24.49.2.49.2.49.2.49.16.49.16.49.16.49.16.49.12.49.12.49.12.49.12.49.12.49.08.49.08.49.08.49.08.49.08.49.08.49.04.49.04.49.04.49.04.49.04.49.04.49.04.49.04-.04.57-.49-.04-.49-.04-.49-.04-.49-.04-.49-.04-.49-.04-.49-.04-.49-.08-.49-.08-.49-.08-.49-.08-.49-.08-.49-.08-.49-.08-.49-.12-.49-.12-.49-.12-.49-.12-.49-.12-.49-.16-.49-.16-.49-.16-.49-.16-.49-.2-.49-.2-.49-.2-.49-.24-.49-.24-.49-.24-.49-.29-.49-.29-.49-.33-.12-.29h-.29ZM145.39,289.33l-.16-.08.04-.16.12.29v-.04ZM146.29,282.19l.57.08h0l-.04.41-.04.41-.04.41-.08.41-.08.41-.08.41-.08.41-.08.45-.08.45-.08.45-.08.45-.08.45-.08.45-.08.45-.08.45-.08.45-.57-.08.08-.45.08-.45.08-.45.08-.45.08-.45.08-.45.08-.45.08-.45.08-.45.08-.41.08-.41.08-.41.08-.41.04-.41.04-.41.04-.41h0ZM147.22,275.75l.57.08h0l-.04.37-.04.37-.04.37-.04.37-.04.37-.04.41-.04.41-.04.41-.04.41-.04.41-.04.41-.08.41-.08.45-.08.45-.08.45-.08.45-.57-.08.08-.45.08-.45.08-.45.08-.45.08-.41.04-.41.04-.41.04-.41.04-.41.04-.41.04-.41.04-.37.04-.37.04-.37.04-.37.04-.37h0ZM153.13,257.62l.49.29-.04.04h0l-.04.04-.04.04-.08.08-.08.12-.12.16-.12.16-.12.2-.16.24-.16.29-.16.33-.2.33-.2.37-.2.41-.2.45-.24.49-.24.53-.24.57-.24.61-.24.65-.24.69-.24.77-.24.82-.24.86-.24.9-.24.94-.24,1.02-.2,1.06-.2,1.1-.2,1.14-.2,1.22-.2,1.26-.57-.08.2-1.26.2-1.22.2-1.18.2-1.1.2-1.06.24-1.02.24-.98.24-.9.24-.86.24-.82.24-.77.24-.73.24-.69.24-.61.24-.57.24-.53.24-.49.2-.45.2-.41.2-.41.2-.37.2-.33.16-.29.16-.24.16-.2.12-.2.12-.16.08-.12.08-.08.04-.08.04-.04h0l-.04.04.08.04ZM153.62,257.9v.04l-.04.04.04-.04v-.04ZM168.78,253.42l-.29.49h0l-.49-.29-.49-.24-.49-.2-.53-.2-.53-.16-.53-.12-.53-.12-.53-.08-.53-.04-.53-.04h-.53l-.53.04-.53.04-.53.08-.53.08-.49.12-.49.16-.49.16-.49.2-.49.2-.45.24-.45.24-.45.29-.45.33-.41.33-.41.37-.37.37-.37.41-.37.41-.33.45-.33.45-.29.49-.49-.29.33-.49.33-.49.37-.45.37-.45.41-.41.41-.41.41-.37.45-.37.45-.33.45-.29.49-.29.49-.24.49-.24.53-.2.53-.16.53-.16.53-.12.53-.12.53-.08.53-.04.57-.04h.57l.57.04.57.04.57.08.57.12.53.12.53.16.53.2.53.2.53.24.53.29h0l-.04.08Z"/>
            </g>
            <g>
              <path class="cls-5" d="M145.43,288.96c5.18,3.38,10.56,3.99,15.98,4.44.45.04.86-.29.9-.73.29-2.16.2-3.75.24-5.38,0-.12-.08-.24-.24-.29-5.83-1.1-10.19-1.75-15.69-4.73-.08-.04-.16-.04-.24,0s-.12.08-.16.16c-.69,2.08-.98,3.71-1.14,5.75-.04.33.12.61.37.77Z"/>
              <path class="cls-14" d="M161.28,286.84l-.98,6.48c-.94-.08-1.87-.16-2.81-.29l1.02-6.72c.9.16,1.83.37,2.77.53Z"/>
              <path class="cls-11" d="M156.07,285.78l-1.43,6.81c-.94-.16-1.83-.41-2.77-.65l1.43-6.85c.9.29,1.83.49,2.73.73l.04-.04Z"/>
              <path class="cls-9" d="M150.73,284.15l-1.79,6.72c-.86-.37-1.71-.82-2.57-1.3l1.75-6.56c.9.45,1.75.82,2.61,1.14Z"/>
            </g>
          </g>
          <path id="shoulder_joint_circle_left" data-name="shoulder joint circle left" class="cls-13" d="M153.38,257.7c3.1-5.34,9.9-7.17,15.28-4.08,5.34,3.1,7.17,9.9,4.08,15.28-3.1,5.34-9.9,7.17-15.28,4.08-5.34-3.1-7.17-9.9-4.08-15.28Z"/>
        </g>
        <g id="upper-arm_right" data-name="upper-arm right">
          <path class="cls-8" d="M220.91,274.45s1.43,29.96,6.93,47.28c.04.29.12.61.2.9,1.1,4.16,5.38,6.6,9.54,5.5,3.46-.94,5.79-4.08,5.79-7.54,0-.65-.08-1.34-.29-2-.04-.12-.08-.29-.12-.41-1.18-7.54-4.89-30.89-6.48-42.47-1.92-13.94-5.87-18.06-5.87-18.06-3.1-5.34-9.9-7.17-15.28-4.08-5.34,3.1-7.17,9.9-4.08,15.28,2.08,3.59,5.83,5.58,9.66,5.58Z"/>
          <path class="cls-1" d="M243.21,320.63h.29c0,.08-.08.16-.16.16s-.16-.08-.16-.16h.04ZM243.25,318.59h0v2.61h-.29v-2.57h0l.29-.08v.04ZM243.25,318.59l-.29.08c-.04-.08.04-.16.12-.2.08-.04.16.04.2.12h-.04ZM243.12,318.22v-.04.65l-.29.08v-.69l.29-.04v.04ZM243.12,318.18l-.29.08c-.04-.08,0-.16.08-.2.08-.04.16,0,.2.08v.04ZM236.64,275.71h0l.16,1.1.16,1.18.16,1.22.2,1.3.2,1.34.2,1.39.2,1.43.2,1.47.2,1.51.24,1.51.24,1.55.24,1.55.24,1.55.24,1.55.24,1.55.24,1.55.24,1.55.24,1.51.24,1.51.24,1.47.24,1.43.2,1.39.2,1.34.2,1.3.2,1.26.2,1.22.16,1.14.16,1.06.16,1.02.16.94.12.86.12.73-.29.04-.12-.73-.12-.86-.16-.94-.16-1.02-.16-1.06-.16-1.14-.2-1.22-.2-1.26-.2-1.3-.2-1.34-.2-1.39-.24-1.43-.24-1.47-.24-1.51-.24-1.51-.24-1.55-.24-1.55-.24-1.55-.24-1.55-.24-1.55-.24-1.55-.24-1.55-.24-1.51-.2-1.51-.2-1.47-.2-1.43-.2-1.39-.2-1.34-.2-1.3-.16-1.22-.16-1.18-.16-1.1h0s.29-.04.29-.04ZM236.64,275.71l-.29.04c0-.08.04-.16.12-.16s.16.04.16.12ZM236.44,274.41v1.3l-.29.04v-1.3l.29-.04ZM236.44,274.41l-.29.04c0-.08.04-.16.12-.16s.16.04.16.12ZM221.08,274.41h-.29c0-.08.04-.16.16-.16.08,0,.16.04.16.16h-.04ZM227.68,321.73v.04l-.49-1.67-.49-1.71-.45-1.79-.45-1.83-.41-1.87-.41-1.92-.37-1.96-.37-1.96-.33-1.96-.33-2-.29-1.96-.29-1.96-.24-1.96-.24-1.92-.2-1.87-.2-1.83-.2-1.79-.16-1.71-.16-1.67-.12-1.59-.12-1.51-.12-1.43-.08-1.3-.08-1.22-.08-1.1-.08-.98-.04-.86-.04-.69-.04-.57-.04-.41v-.33h.29v.33l.04.41.04.57.04.69.04.86.08.98.08,1.1.08,1.22.08,1.3.12,1.43.12,1.51.12,1.59.16,1.67.16,1.71.2,1.79.2,1.83.2,1.87.24,1.92.24,1.96.29,1.96.29,1.96.33,1.96.33,1.96.37,1.96.37,1.96.41,1.92.41,1.87.45,1.83.45,1.79.49,1.71.49,1.67v.04l-.29.04v-.08ZM227.68,321.77l.29-.08c.04.08,0,.16-.08.2-.08.04-.16,0-.2-.08v-.04ZM227.84,322.67v-.65l.29-.04v.65l-.29.08v-.04ZM227.84,322.67l.29-.08c.04.08-.04.16-.12.2-.08.04-.16-.04-.2-.12h.04Z"/>
          <g id="sleeve_right" data-name="sleeve right">
            <g>
              <path class="cls-3" d="M215.33,253.58c-5.34,3.1-7.17,9.9-4.08,15.28,1.79,3.14,4.89,5.05,8.19,5.5.73,2.24,1.55,5.42,2.16,9.86.08.86.16,1.79.24,2.73.2,2,.41,4.16.65,6.44,5.38-.45,10.76-1.02,15.9-4.36-.37-2.4-.69-4.69-1.02-6.85-.37-2.4-.65-4.56-.94-6.48-1.92-13.94-5.87-18.06-5.87-18.06-3.1-5.34-9.9-7.17-15.28-4.08h.04Z"/>
              <path id="_1_25" data-name=" 1 25" class="cls-10" d="M211.01,269.03h0l-.29-.53-.24-.53-.2-.53-.2-.53-.16-.53-.12-.53-.12-.57-.08-.57-.04-.57-.04-.57v-.57l.04-.57.04-.53.08-.53.12-.53.12-.53.16-.53.16-.53.2-.53.24-.49.24-.49.29-.49.29-.45.33-.45.37-.45.37-.41.41-.41.41-.41.45-.37.45-.37.49-.33.49-.33.29.49-.49.29-.45.33-.45.33-.41.37-.41.37-.37.37-.37.41-.33.41-.33.45-.29.45-.24.45-.24.45-.2.49-.2.49-.16.49-.16.49-.12.49-.08.53-.08.53-.04.53-.04.53v.53l.04.53.04.53.08.53.12.53.12.53.16.53.2.53.2.49.24.49.29.49h0l-.49.29-.08.04ZM219.2,274.45l.24.2-.33-.04-.33-.04-.33-.08-.33-.08-.33-.08-.33-.08-.29-.08-.29-.12-.29-.12-.29-.12-.29-.12-.29-.12-.29-.16-.29-.16-.29-.16-.29-.16-.29-.16-.24-.2-.24-.2-.24-.2-.24-.2-.24-.2-.24-.24-.24-.24-.24-.24-.2-.24-.2-.24-.2-.29-.2-.29-.2-.29-.2-.29-.16-.29.49-.29.16.29.16.29.16.29.2.24.2.24.2.24.2.24.2.24.2.24.24.2.24.2.24.2.24.2.24.2.24.16.24.16.24.16.24.16.29.16.29.12.29.12.29.12.29.12.29.12.29.12.29.08.29.08.29.08.29.08.29.08.29.04.29.04.24.2-.53.16.08-.08ZM219.53,274.08l.16.04.04.16-.24-.2h.04ZM221.36,284.27h0l-.04-.41-.04-.41-.04-.41-.08-.41-.08-.37-.08-.37-.08-.37-.08-.37-.08-.37-.08-.37-.08-.33-.08-.33-.08-.33-.08-.33-.08-.33-.08-.33-.08-.29-.08-.29-.08-.29-.08-.29-.08-.29-.08-.29-.08-.24-.08-.24-.08-.24-.08-.24-.08-.24-.08-.24-.08-.24-.08-.2-.08-.2-.08-.2.53-.16.08.2.08.2.08.24.08.24.08.24.08.24.08.24.08.24.08.24.08.29.08.29.08.29.08.29.08.29.08.29.08.29.08.33.08.33.08.33.08.33.08.33.08.33.08.37.08.37.08.37.08.37.08.37.08.37.08.41.08.41.04.41.04.41h0l-.57.04v.04ZM221.6,287h0v-2.61l.57-.04v2.61h0l-.57.04ZM222.58,293.69l-.29-.24-.04-.2-.04-.2-.04-.2-.04-.2-.04-.2-.04-.2-.04-.2-.04-.2-.04-.41-.04-.41-.04-.41-.04-.41-.04-.41-.04-.41-.04-.41-.04-.41-.04-.41-.04-.37-.04-.37-.04-.37.57-.04.04.37.04.37.04.37.04.41.04.41.04.41.04.41.04.41.04.41.04.41.04.41.04.41.04.2.04.2.04.2.04.2.04.2.04.2.04.2.04.2-.29-.24.04.57-.04-.04ZM222.58,293.69l-.29.04-.04-.29.29.24h.04ZM238.76,289l-.12.29-.49.33-.49.29-.49.29-.49.24-.49.24-.49.24-.49.2-.49.2-.49.2-.49.16-.49.16-.49.16-.49.16-.49.12-.49.12-.49.12-.49.12-.49.12-.49.08-.49.08-.49.08-.49.08-.49.08-.49.08-.49.08-.49.04-.49.04-.49.04-.49.04-.49.04-.49.04-.49.04-.04-.57.49-.04.49-.04.49-.04.49-.04.49-.04.49-.04.49-.04.49-.04.49-.08.49-.08.49-.08.49-.08.49-.08.49-.08.49-.12.49-.12.49-.12.49-.12.49-.12.49-.16.49-.16.49-.16.49-.16.49-.2.49-.2.49-.2.49-.24.49-.24.49-.24.49-.29.49-.29.49-.29-.12.29.57-.08h-.29ZM238.76,289l.04.16-.16.08.12-.29v.04ZM237.74,282.15h0l.04.41.04.41.04.41.08.41.08.41.08.41.08.41.08.45.08.45.08.45.08.45.08.45.08.45.08.45.08.45.08.45-.57.08-.08-.45-.08-.45-.08-.45-.08-.45-.08-.45-.08-.45-.08-.45-.08-.45-.08-.45-.08-.41-.08-.41-.08-.41-.08-.41-.04-.41-.04-.41-.04-.41h0l.57-.08ZM236.81,275.71h0l.04.37.04.37.04.37.04.37.04.37.04.41.04.41.04.41.04.41.04.41.04.41.08.41.08.45.08.45.08.45.08.45-.57.08-.08-.45-.08-.45-.08-.45-.08-.45-.08-.41-.04-.41-.04-.41-.04-.41-.04-.41-.04-.41-.04-.41-.04-.37-.04-.37-.04-.37-.04-.37-.04-.37h0l.57-.08ZM230.9,257.58l-.04-.04h0l.04.04.04.08.08.08.08.12.12.16.12.2.16.2.16.24.16.29.2.33.2.37.2.41.2.41.2.45.24.49.24.53.24.57.24.61.24.69.24.73.24.77.24.82.24.86.24.9.24.98.24,1.02.2,1.06.2,1.1.2,1.18.2,1.22.2,1.26-.57.08-.2-1.26-.2-1.22-.2-1.14-.2-1.1-.2-1.06-.24-1.02-.24-.94-.24-.9-.24-.86-.24-.82-.24-.77-.24-.69-.24-.65-.24-.61-.24-.57-.24-.53-.24-.49-.2-.45-.2-.41-.2-.37-.2-.33-.16-.33-.16-.29-.16-.24-.12-.2-.12-.16-.12-.16-.08-.12-.08-.08-.04-.04-.04-.04h0l-.04-.04.49-.29.08-.04ZM230.45,257.9l-.04-.04v-.04l.04.04v.04ZM215.25,253.38h0l.53-.29.53-.24.53-.2.53-.2.53-.16.53-.12.57-.12.57-.08.57-.04.57-.04h.57l.57.04.53.04.53.08.53.12.53.12.53.16.53.16.53.2.49.24.49.24.49.29.45.29.45.33.45.37.41.37.41.41.41.41.37.45.37.45.33.49.33.49-.49.29-.29-.49-.33-.45-.33-.45-.37-.41-.37-.41-.37-.37-.41-.37-.41-.33-.45-.33-.45-.29-.45-.24-.45-.24-.49-.2-.49-.2-.49-.16-.49-.16-.49-.12-.53-.08-.53-.08-.53-.04-.53-.04h-.53l-.53.04-.53.04-.53.08-.53.12-.53.12-.53.16-.53.2-.49.2-.49.24-.49.29h0l-.29-.49-.04-.08Z"/>
            </g>
            <g>
              <path class="cls-5" d="M238.56,288.96c-5.18,3.38-10.56,3.99-15.98,4.44-.45.04-.86-.29-.9-.73-.29-2.16-.2-3.75-.24-5.38,0-.12.08-.24.24-.29,5.83-1.1,10.19-1.75,15.69-4.73.08-.04.16-.04.24,0,.08.04.12.08.16.16.69,2.08.98,3.71,1.14,5.75.04.33-.12.61-.37.77Z"/>
              <path class="cls-14" d="M222.71,286.84l.98,6.48c.94-.08,1.87-.16,2.81-.29l-1.02-6.72c-.9.16-1.83.37-2.77.53Z"/>
              <path class="cls-11" d="M227.92,285.78l1.43,6.81c.94-.16,1.83-.41,2.77-.65l-1.43-6.85c-.9.29-1.83.49-2.73.73l-.04-.04Z"/>
              <path class="cls-9" d="M233.26,284.15l1.79,6.72c.86-.37,1.71-.82,2.57-1.3l-1.75-6.56c-.9.45-1.75.82-2.61,1.14Z"/>
            </g>
          </g>
          <path id="shoulder_joint_circle_right" data-name="shoulder joint circle right" class="cls-13" d="M230.61,257.7c-3.1-5.34-9.9-7.17-15.28-4.08-5.34,3.1-7.17,9.9-4.08,15.28,3.1,5.34,9.9,7.17,15.28,4.08,5.34-3.1,7.17-9.9,4.08-15.28Z"/>
        </g>
        <g id="breasts">
          <g>
            <path class="cls-3" d="M191.97,280.36v7.62c-.9.24-1.43,1.18-1.43,1.18-2.16,5.99-7.78,10.27-14.43,10.27-8.48,0-15.85-7.05-15.85-15.77s7.38-17.48,15.85-17.48c1.67,0,3.26.33,4.77.94,8.56,2.81,11.05,13.16,11.05,13.16l.04.08Z"/>
            <path class="cls-7" d="M189.98,290.63c-11.45,20.87-42.02,2.4-24.54-19.32-16.06,21.11,13.08,38.96,24.54,19.32Z"/>
          </g>
          <g>
            <path class="cls-3" d="M191.97,280.36v7.62c.9.24,1.43,1.18,1.43,1.18,2.16,5.99,7.78,10.27,14.43,10.27,8.48,0,15.85-7.05,15.85-15.77s-7.38-17.48-15.85-17.48c-1.67,0-3.26.33-4.77.94-8.56,2.81-11.05,13.16-11.05,13.16l-.04.08Z"/>
            <path class="cls-7" d="M194.01,290.63c11.45,20.87,42.02,2.4,24.54-19.32,16.06,21.11-13.08,38.96-24.54,19.32Z"/>
          </g>
        </g>
      </g>
    </g>
  </g>
</svg>